<svg viewBox="0 0 200 200" xmlns="http://www.w3.org/2000/svg">
  <path fill="#3b82f6" d="M45.7,-79.1C59.1,-71.4,69.8,-58.9,77,-44.9C84.3,-31,88.3,-15.5,88.3,0C88.2,15.5,84.3,30.9,77.2,45.3C70.2,59.7,60,73,46.6,81.5C33.2,89.9,16.6,93.4,0.3,92.8C-16,92.2,-31.9,87.6,-45.4,79.2C-59,70.9,-70.1,58.9,-78.5,45.1C-87,31.2,-92.9,15.6,-92.4,0.3C-91.9,-15.1,-85.1,-30.2,-76,-42.8C-66.9,-55.5,-55.4,-65.8,-42.4,-73.8C-29.3,-81.8,-14.7,-87.4,0.7,-88.7C16.1,-89.9,32.3,-86.9,45.7,-79.1Z" transform="translate(100 100)" />
</svg>